<svg width="20" height="20" viewBox="0 0 20 20" fill="none" xmlns="http://www.w3.org/2000/svg">
<path fill-rule="evenodd" clip-rule="evenodd" d="M5.87506 1.66797C4.43811 1.66797 3.06001 2.2388 2.04394 3.25487C1.02786 4.27095 0.457031 5.64905 0.457031 7.086C0.457031 8.52295 1.02786 9.90104 2.04394 10.9171L9.41099 18.2842C9.45167 18.3249 9.49551 18.3605 9.54173 18.391C9.8652 18.6045 10.3048 18.569 10.5896 18.2842L17.9566 10.9171C18.9727 9.90104 19.5435 8.52295 19.5435 7.086C19.5435 5.64905 18.9727 4.27095 17.9566 3.25487C16.9405 2.2388 15.5625 1.66797 14.1255 1.66797C12.6886 1.66797 11.3105 2.2388 10.2944 3.25487L10.0003 3.54897L9.70618 3.25487C8.69011 2.2388 7.31201 1.66797 5.87506 1.66797ZM10.5896 5.31683C10.3048 5.6016 9.8652 5.6372 9.54173 5.42362C9.49551 5.39311 9.45167 5.35751 9.41099 5.31683L8.52761 4.43345C7.82411 3.72995 6.86996 3.33472 5.87506 3.33472C4.88016 3.33472 3.92601 3.72995 3.22251 4.43345C2.51901 5.13695 2.12379 6.0911 2.12379 7.086C2.12379 8.0809 2.51901 9.03505 3.22251 9.73855L10.0003 16.5163L16.7781 9.73855C17.4816 9.03505 17.8768 8.0809 17.8768 7.086C17.8768 6.0911 17.4816 5.13695 16.7781 4.43345C16.0746 3.72995 15.1204 3.33472 14.1255 3.33472C13.1306 3.33472 12.1765 3.72995 11.473 4.43345L10.5896 5.31683Z" fill="#CBCBD4"/>
</svg>
