<svg width="20" height="19" viewBox="0 0 20 19" fill="none" xmlns="http://www.w3.org/2000/svg">
<path d="M6.66536 8.66536C6.20513 8.66536 5.83203 9.03846 5.83203 9.4987C5.83203 9.95893 6.20513 10.332 6.66536 10.332H13.332C13.7923 10.332 14.1654 9.95893 14.1654 9.4987C14.1654 9.03846 13.7923 8.66536 13.332 8.66536H6.66536Z" fill="black" fill-opacity="0.75"/>
<path fill-rule="evenodd" clip-rule="evenodd" d="M9.9987 0.332031C4.93609 0.332031 0.832031 4.43609 0.832031 9.4987C0.832031 14.5613 4.93609 18.6654 9.9987 18.6654C15.0613 18.6654 19.1654 14.5613 19.1654 9.4987C19.1654 4.43609 15.0613 0.332031 9.9987 0.332031ZM2.4987 9.4987C2.4987 5.35656 5.85656 1.9987 9.9987 1.9987C14.1408 1.9987 17.4987 5.35656 17.4987 9.4987C17.4987 13.6408 14.1408 16.9987 9.9987 16.9987C5.85656 16.9987 2.4987 13.6408 2.4987 9.4987Z" fill="black" fill-opacity="0.75"/>
</svg>
