<svg width="20" height="21" viewBox="0 0 20 21" fill="none" xmlns="http://www.w3.org/2000/svg">
<path d="M9.9987 6.33203C10.4589 6.33203 10.832 6.70513 10.832 7.16536V9.66536H13.332C13.7923 9.66536 14.1654 10.0385 14.1654 10.4987C14.1654 10.9589 13.7923 11.332 13.332 11.332H10.832V13.832C10.832 14.2923 10.4589 14.6654 9.9987 14.6654C9.53846 14.6654 9.16536 14.2923 9.16536 13.832V11.332H6.66536C6.20513 11.332 5.83203 10.9589 5.83203 10.4987C5.83203 10.0385 6.20513 9.66536 6.66536 9.66536H9.16536V7.16536C9.16536 6.70513 9.53846 6.33203 9.9987 6.33203Z" fill="black" fill-opacity="0.75"/>
<path fill-rule="evenodd" clip-rule="evenodd" d="M0.832031 10.4987C0.832031 5.43609 4.93609 1.33203 9.9987 1.33203C15.0613 1.33203 19.1654 5.43609 19.1654 10.4987C19.1654 15.5613 15.0613 19.6654 9.9987 19.6654C4.93609 19.6654 0.832031 15.5613 0.832031 10.4987ZM9.9987 2.9987C5.85656 2.9987 2.4987 6.35656 2.4987 10.4987C2.4987 14.6408 5.85656 17.9987 9.9987 17.9987C14.1408 17.9987 17.4987 14.6408 17.4987 10.4987C17.4987 6.35656 14.1408 2.9987 9.9987 2.9987Z" fill="black" fill-opacity="0.75"/>
</svg>
