<svg width="10" height="10" viewBox="0 0 10 10" fill="none" xmlns="http://www.w3.org/2000/svg">
<g clip-path="url(#clip0_2007_235)">
<path d="M5.55916 0.555391C5.45386 0.342076 5.2366 0.207031 4.99872 0.207031C4.76083 0.207031 4.54357 0.342076 4.43827 0.555391L3.29605 2.86941L0.741657 3.24277C0.506307 3.27717 0.310882 3.44217 0.237521 3.66843C0.16416 3.89468 0.22558 4.14297 0.395966 4.30892L2.24381 6.10872L1.80771 8.65138C1.76749 8.88587 1.8639 9.12286 2.05638 9.26269C2.24887 9.40252 2.50405 9.42094 2.71462 9.3102L4.99872 8.10902L7.28281 9.3102C7.49338 9.42094 7.74856 9.40252 7.94105 9.26269C8.13354 9.12286 8.22994 8.88587 8.18972 8.65138L7.75363 6.10872L9.60147 4.30892C9.77185 4.14297 9.83327 3.89468 9.75991 3.66843C9.68655 3.44217 9.49113 3.27717 9.25578 3.24277L6.70138 2.86941L5.55916 0.555391Z" fill="black"/>
</g>
<defs>
<clipPath id="clip0_2007_235">
<rect width="10" height="10" fill="white"/>
</clipPath>
</defs>
</svg>
