<svg width="16" height="14" viewBox="0 0 16 14" fill="none" xmlns="http://www.w3.org/2000/svg">
<path d="M1.63671 1.60155C2.44957 0.788692 3.55205 0.332031 4.70161 0.332031C5.85117 0.332031 6.95365 0.788692 7.76651 1.60155L8.00179 1.83683L8.23707 1.60155C9.04993 0.788692 10.1524 0.332031 11.302 0.332031C12.4515 0.332031 13.554 0.788692 14.3669 1.60155C15.1797 2.41442 15.6364 3.51689 15.6364 4.66645C15.6364 5.81601 15.1797 6.91849 14.3669 7.73135L8.47321 13.625C8.2454 13.8528 7.89372 13.8813 7.63494 13.7104C7.59797 13.686 7.5629 13.6575 7.53035 13.625L1.63671 7.73135C0.823849 6.91849 0.367188 5.81601 0.367188 4.66645C0.367188 3.51689 0.823849 2.41442 1.63671 1.60155Z" fill="#EB4335"/>
</svg>
